<svg id="svg" version="1.1" xmlns="http://www.w3.org/2000/svg" xmlns:xlink="http://www.w3.org/1999/xlink" width="400" height="650.6" viewBox="0, 0, 400,650.6"><g id="svgg"><path id="path0" d="M228.203 0.687 C 227.607 1.052,226.875 1.476,226.576 1.629 C 225.995 1.928,224.002 3.036,222.237 4.043 C 220.568 4.995,215.746 7.956,215.593 8.123 C 215.519 8.204,215.031 8.503,214.508 8.787 C 212.049 10.123,202.115 16.964,199.252 19.293 C 198.691 19.749,197.776 20.430,197.218 20.805 C 196.660 21.179,196.006 21.686,195.766 21.930 C 195.525 22.173,194.457 23.090,193.393 23.968 C 192.328 24.845,191.458 25.668,191.458 25.798 C 191.458 25.928,191.344 26.034,191.206 26.034 C 190.535 26.034,178.867 37.710,178.501 38.748 C 178.459 38.866,177.883 39.544,177.222 40.255 C 176.560 40.966,176.045 41.687,176.077 41.858 C 176.109 42.029,175.968 42.134,175.763 42.091 C 175.531 42.041,175.449 42.164,175.546 42.416 C 175.641 42.664,175.503 42.883,175.186 42.983 C 174.903 43.073,174.596 43.384,174.504 43.675 C 174.412 43.966,174.223 44.203,174.083 44.203 C 173.944 44.203,173.831 44.455,173.831 44.762 C 173.831 45.069,173.727 45.256,173.600 45.178 C 173.474 45.100,173.199 45.367,172.990 45.772 C 172.781 46.177,172.488 46.657,172.339 46.838 C 172.190 47.019,171.923 47.342,171.745 47.555 C 171.568 47.768,171.496 48.016,171.587 48.107 C 171.677 48.197,171.603 48.271,171.421 48.271 C 171.239 48.271,170.963 48.637,170.807 49.085 C 170.651 49.532,170.413 49.898,170.279 49.898 C 170.144 49.898,170.034 50.081,170.034 50.305 C 170.034 50.529,169.912 50.712,169.763 50.712 C 169.614 50.712,169.492 50.846,169.492 51.009 C 169.492 51.172,169.239 51.661,168.931 52.094 C 168.622 52.527,168.468 52.881,168.589 52.881 C 168.709 52.881,168.463 53.201,168.042 53.592 C 167.549 54.049,167.323 54.484,167.409 54.812 C 167.495 55.140,167.401 55.322,167.145 55.322 C 166.926 55.322,166.824 55.445,166.916 55.595 C 167.009 55.745,166.892 55.942,166.656 56.033 C 166.421 56.123,166.243 56.336,166.262 56.505 C 166.311 56.948,165.934 58.034,165.731 58.034 C 165.637 58.033,165.559 59.345,165.559 60.949 C 165.559 62.552,165.408 77.044,165.224 93.153 C 164.547 152.221,164.070 196.967,163.905 216.814 C 163.813 228.000,163.656 238.983,163.558 241.220 C 163.440 243.884,163.474 245.355,163.655 245.482 C 163.808 245.588,163.938 245.832,163.945 246.024 C 163.951 246.216,164.104 246.342,164.284 246.305 C 164.463 246.268,164.610 246.423,164.610 246.651 C 164.610 246.878,164.916 247.181,165.290 247.323 C 165.664 247.465,165.940 247.676,165.902 247.791 C 165.797 248.116,166.670 249.239,166.872 249.038 C 166.970 248.939,167.051 249.112,167.051 249.422 C 167.051 249.732,167.401 250.281,167.830 250.641 C 168.258 251.001,168.945 251.805,169.357 252.428 C 169.769 253.050,170.212 253.559,170.341 253.559 C 170.470 253.559,170.576 253.689,170.576 253.847 C 170.576 254.091,171.830 255.921,172.742 257.006 C 172.893 257.186,173.017 257.450,173.017 257.593 C 173.017 257.736,173.111 257.894,173.225 257.944 C 173.340 257.993,173.854 258.705,174.369 259.525 C 174.883 260.346,175.373 261.078,175.458 261.153 C 176.259 261.861,181.164 271.215,182.497 274.576 C 182.615 274.875,182.841 275.443,182.999 275.839 C 183.399 276.840,185.270 282.332,185.334 282.690 C 185.362 282.851,185.519 283.410,185.681 283.932 C 187.225 288.890,188.550 297.869,188.924 305.898 C 189.093 309.531,189.127 309.694,189.618 309.202 C 189.795 309.026,190.108 308.881,190.314 308.881 C 190.784 308.881,197.798 305.570,197.921 305.290 C 197.971 305.177,198.174 305.085,198.372 305.085 C 198.720 305.085,200.184 304.351,203.436 302.548 C 204.282 302.079,205.624 301.344,206.419 300.916 C 207.832 300.154,210.842 298.366,212.291 297.428 C 212.690 297.169,213.268 296.845,213.575 296.709 C 213.881 296.572,214.522 296.132,214.998 295.731 C 215.475 295.331,215.864 295.075,215.864 295.164 C 215.864 295.252,216.871 294.629,218.102 293.778 C 219.332 292.927,220.797 291.928,221.356 291.559 C 221.915 291.189,222.373 290.786,222.373 290.664 C 222.373 290.541,222.472 290.471,222.593 290.508 C 222.714 290.546,223.172 290.303,223.610 289.969 C 224.048 289.634,225.499 288.557,226.834 287.574 C 228.168 286.591,229.389 285.637,229.545 285.455 C 229.702 285.272,230.506 284.617,231.331 283.997 C 236.232 280.322,247.611 269.638,247.381 268.929 C 247.341 268.806,247.435 268.783,247.589 268.879 C 247.743 268.974,248.080 268.685,248.338 268.236 C 248.596 267.787,249.022 267.363,249.285 267.294 C 249.548 267.226,249.763 266.975,249.763 266.737 C 249.763 266.500,249.942 266.305,250.161 266.305 C 250.421 266.305,250.499 266.148,250.386 265.854 C 250.270 265.550,250.317 265.467,250.530 265.599 C 250.705 265.706,250.847 265.658,250.847 265.492 C 250.847 265.325,250.968 265.263,251.116 265.354 C 251.271 265.450,251.314 265.338,251.218 265.088 C 251.127 264.850,251.177 264.691,251.329 264.735 C 251.482 264.778,251.643 264.692,251.687 264.542 C 251.815 264.106,252.316 263.642,252.610 263.687 C 252.759 263.710,252.851 263.576,252.814 263.390 C 252.776 263.203,252.929 263.051,253.153 263.051 C 253.376 263.051,253.559 262.922,253.559 262.764 C 253.559 262.606,253.418 262.564,253.246 262.670 C 253.052 262.790,253.007 262.744,253.127 262.550 C 253.233 262.378,253.492 262.237,253.702 262.237 C 253.922 262.237,254.022 262.073,253.936 261.850 C 253.844 261.611,254.080 261.311,254.555 261.062 C 254.977 260.840,255.304 260.557,255.281 260.431 C 255.259 260.306,255.324 260.225,255.427 260.252 C 255.529 260.278,255.629 260.095,255.649 259.845 C 255.780 258.178,257.489 105.069,257.491 94.717 L 257.492 93.026 255.458 91.142 C 254.339 90.106,252.813 88.639,252.067 87.883 C 251.321 87.127,250.538 86.508,250.327 86.508 C 250.116 86.508,250.016 86.436,250.105 86.347 C 250.241 86.211,249.567 85.489,247.278 83.317 C 245.960 82.067,245.258 81.384,244.493 80.610 C 244.014 80.125,243.479 79.729,243.303 79.729 C 243.127 79.729,242.983 79.565,242.983 79.366 C 242.983 78.983,240.363 76.475,239.963 76.475 C 239.834 76.475,239.729 76.366,239.729 76.233 C 239.729 75.925,235.116 71.322,234.807 71.322 C 234.680 71.322,234.576 71.195,234.576 71.040 C 234.576 70.885,234.119 70.299,233.559 69.739 C 232.073 68.249,229.982 65.951,228.744 64.448 C 228.148 63.725,227.539 62.993,227.390 62.821 C 226.645 61.961,225.120 59.934,224.401 58.847 C 223.957 58.176,223.502 57.586,223.390 57.537 C 223.278 57.487,223.186 57.326,223.186 57.180 C 223.186 57.033,222.894 56.524,222.537 56.050 C 221.559 54.749,219.141 49.775,218.294 47.322 C 215.873 40.309,215.715 33.509,217.769 24.678 C 218.262 22.558,219.917 18.178,221.733 14.186 C 222.085 13.412,222.373 12.650,222.373 12.491 C 222.373 12.333,222.466 12.203,222.580 12.203 C 222.694 12.203,223.090 11.563,223.459 10.780 C 223.829 9.997,224.651 8.563,225.285 7.593 C 225.920 6.624,226.440 5.678,226.440 5.492 C 226.440 5.305,226.543 5.153,226.669 5.153 C 226.795 5.153,227.130 4.703,227.415 4.153 C 227.699 3.603,228.092 2.963,228.288 2.729 C 228.741 2.190,229.966 0.287,229.966 0.124 C 229.966 -0.170,229.209 0.072,228.203 0.687 M164.741 59.406 C 164.500 60.164,164.689 60.302,165.089 59.661 C 165.273 59.367,165.306 59.078,165.167 58.992 C 165.031 58.908,164.839 59.095,164.741 59.406 M256.129 92.165 C 255.993 92.301,255.377 91.693,254.656 90.708 C 254.439 90.412,254.711 90.588,255.262 91.100 C 255.813 91.612,256.203 92.091,256.129 92.165 M258.689 255.967 C 257.898 256.775,257.814 257.231,258.593 256.483 C 259.015 256.077,259.307 255.696,259.240 255.636 C 259.173 255.577,258.925 255.725,258.689 255.967 M253.107 347.525 C 253.132 347.675,252.948 347.798,252.697 347.800 C 252.447 347.802,252.160 347.885,252.060 347.985 C 251.961 348.084,251.696 348.096,251.472 348.010 C 251.247 347.924,250.984 347.983,250.885 348.142 C 250.787 348.301,250.528 348.471,250.309 348.521 C 250.090 348.570,249.746 348.764,249.544 348.952 C 249.342 349.139,249.070 349.227,248.939 349.146 C 248.809 349.066,248.269 349.180,247.741 349.401 C 247.212 349.622,246.780 349.733,246.780 349.648 C 246.780 349.563,246.627 349.614,246.441 349.761 C 246.254 349.909,245.247 350.306,244.203 350.644 C 243.159 350.982,242.061 351.389,241.763 351.549 C 241.464 351.708,241.098 351.861,240.949 351.888 C 240.130 352.039,237.801 352.913,237.675 353.117 C 237.594 353.249,237.295 353.356,237.010 353.356 C 236.543 353.356,235.215 353.844,233.970 354.474 C 233.711 354.605,233.280 354.712,233.013 354.712 C 232.746 354.712,232.287 354.877,231.993 355.079 C 231.698 355.281,231.153 355.513,230.780 355.594 C 230.407 355.676,229.431 356.008,228.610 356.332 C 227.790 356.657,226.814 357.027,226.441 357.155 C 226.068 357.283,224.725 357.773,223.458 358.245 C 222.190 358.717,220.847 359.204,220.475 359.328 C 220.102 359.451,219.125 359.815,218.305 360.136 C 217.485 360.456,216.508 360.823,216.136 360.951 C 212.962 362.037,209.219 363.434,208.976 363.624 C 208.812 363.752,208.312 363.926,207.864 364.012 C 207.417 364.098,206.563 364.382,205.966 364.644 C 205.369 364.906,204.820 365.138,204.746 365.159 C 204.504 365.231,203.542 365.597,202.847 365.882 C 202.475 366.035,201.498 366.384,200.678 366.658 C 199.858 366.932,198.149 367.542,196.881 368.015 C 195.614 368.487,193.600 369.225,192.407 369.653 C 191.214 370.082,189.993 370.547,189.695 370.687 C 189.397 370.827,188.542 371.146,187.797 371.397 C 187.051 371.649,186.197 371.948,185.898 372.064 C 183.982 372.806,182.796 373.257,181.966 373.559 C 181.014 373.906,179.047 374.657,178.034 375.061 C 177.736 375.180,177.247 375.338,176.949 375.412 C 176.651 375.487,175.736 375.811,174.915 376.133 C 174.095 376.455,173.058 376.830,172.610 376.965 C 172.163 377.101,171.553 377.325,171.254 377.463 C 170.335 377.888,169.637 378.122,169.424 378.077 C 169.312 378.053,169.220 378.156,169.220 378.305 C 169.220 378.454,168.942 378.576,168.603 378.576 C 168.263 378.576,167.706 378.772,167.365 379.011 C 167.024 379.250,166.675 379.376,166.591 379.291 C 166.506 379.207,166.179 379.282,165.863 379.458 C 165.547 379.633,165.192 379.782,165.075 379.787 C 164.958 379.792,164.746 379.980,164.604 380.203 C 164.376 380.565,164.346 380.565,164.335 380.203 C 164.325 379.892,164.228 379.920,163.924 380.323 C 163.700 380.618,163.525 380.699,163.525 380.507 C 163.525 380.268,163.396 380.294,163.097 380.593 C 162.861 380.829,162.576 380.965,162.463 380.895 C 162.197 380.731,161.898 397.837,161.898 413.251 C 161.898 425.407,161.442 461.712,161.253 464.606 C 161.186 465.628,161.247 466.101,161.431 465.987 C 161.596 465.886,161.629 465.948,161.511 466.138 C 161.401 466.315,161.585 466.975,161.920 467.603 C 162.254 468.232,162.509 469.027,162.486 469.371 C 162.463 469.719,162.562 469.923,162.711 469.831 C 162.857 469.741,162.910 469.840,162.829 470.053 C 162.747 470.265,162.843 470.607,163.042 470.812 C 163.240 471.018,163.397 471.369,163.390 471.593 C 163.383 471.817,163.522 472.150,163.698 472.334 C 163.875 472.518,163.950 472.934,163.865 473.258 C 163.750 473.698,163.802 473.792,164.067 473.628 C 164.300 473.483,164.357 473.514,164.233 473.715 C 164.029 474.045,164.500 475.126,164.990 475.453 C 165.184 475.583,165.146 475.656,164.881 475.661 C 164.560 475.668,164.549 475.717,164.831 475.895 C 165.027 476.019,165.252 476.536,165.332 477.044 C 165.488 478.035,165.895 478.951,166.295 479.213 C 166.431 479.302,166.602 479.790,166.673 480.298 C 166.837 481.455,167.328 482.738,167.785 483.206 C 168.234 483.664,168.242 484.164,167.797 483.896 C 167.538 483.741,167.529 483.785,167.761 484.084 C 167.928 484.299,168.221 484.963,168.411 485.559 C 168.601 486.156,168.876 486.722,169.022 486.817 C 169.169 486.912,169.326 487.331,169.372 487.750 C 169.453 488.487,169.696 489.119,170.474 490.618 C 170.679 491.014,170.847 491.647,170.847 492.026 C 170.847 492.404,170.969 492.789,171.119 492.881 C 171.268 492.974,171.390 493.295,171.390 493.595 C 171.390 493.895,171.573 494.323,171.797 494.547 C 172.020 494.771,172.203 495.255,172.203 495.623 C 172.203 495.992,172.431 496.746,172.708 497.299 C 172.986 497.852,173.484 499.129,173.815 500.136 C 174.146 501.142,174.536 501.966,174.682 501.966 C 174.828 501.966,174.882 502.072,174.802 502.202 C 174.599 502.530,175.720 505.763,176.037 505.763 C 176.179 505.763,176.260 505.916,176.217 506.104 C 176.123 506.509,177.128 509.559,177.354 509.559 C 177.441 509.559,177.530 509.807,177.553 510.109 C 177.576 510.411,177.785 511.040,178.018 511.506 C 178.250 511.973,178.441 512.580,178.441 512.855 C 178.441 513.131,178.563 513.356,178.712 513.356 C 178.861 513.356,178.969 513.447,178.951 513.559 C 178.933 513.671,178.942 513.824,178.971 513.898 C 179.000 513.973,179.079 514.336,179.147 514.706 C 179.214 515.076,179.388 515.497,179.533 515.642 C 179.678 515.787,179.797 516.162,179.797 516.477 C 179.797 516.792,179.976 517.286,180.195 517.575 C 180.414 517.865,180.597 518.311,180.602 518.567 C 180.606 518.823,180.810 519.494,181.055 520.059 C 181.810 521.804,181.935 522.120,182.526 523.797 C 183.448 526.410,185.226 531.309,185.628 532.339 C 185.831 532.861,186.391 534.386,186.873 535.729 C 187.355 537.071,187.851 538.285,187.976 538.427 C 188.101 538.569,188.203 538.900,188.203 539.164 C 188.203 539.427,188.374 540.043,188.583 540.533 C 188.791 541.023,189.158 541.942,189.396 542.576 C 189.635 543.210,190.004 544.186,190.217 544.746 C 190.430 545.305,190.927 546.678,191.322 547.797 C 192.064 549.898,192.453 550.952,193.171 552.814 C 193.401 553.410,194.094 555.302,194.712 557.017 C 195.940 560.430,196.046 560.714,197.810 565.356 C 198.023 565.915,198.520 567.288,198.915 568.407 C 199.974 571.405,200.406 572.522,200.835 573.378 C 201.047 573.800,201.220 574.315,201.220 574.521 C 201.220 574.728,201.391 575.298,201.600 575.787 C 201.808 576.277,202.189 577.227,202.446 577.898 C 202.702 578.569,203.012 579.363,203.134 579.661 C 203.510 580.582,206.574 589.074,207.048 590.508 C 207.294 591.254,207.801 592.658,208.173 593.627 C 208.545 594.597,209.036 595.878,209.263 596.475 C 209.491 597.071,209.836 597.925,210.030 598.373 C 210.224 598.820,210.591 599.888,210.844 600.745 C 211.097 601.603,211.415 602.373,211.551 602.456 C 211.686 602.540,211.797 602.841,211.797 603.125 C 211.797 603.410,211.969 604.043,212.181 604.533 C 212.392 605.023,212.758 605.869,212.994 606.414 C 213.230 606.958,213.424 607.534,213.424 607.693 C 213.424 607.852,213.603 608.382,213.823 608.872 C 214.042 609.362,214.784 611.349,215.472 613.288 C 216.160 615.227,217.005 617.546,217.351 618.441 C 217.696 619.336,218.370 621.166,218.848 622.508 C 219.326 623.851,219.812 625.193,219.928 625.492 C 220.638 627.321,221.080 628.500,221.959 630.915 C 224.198 637.061,224.393 637.589,225.168 639.593 C 225.399 640.190,225.796 641.258,226.051 641.966 C 226.543 643.335,226.834 643.494,227.677 642.856 C 227.967 642.637,228.447 642.454,228.746 642.448 C 229.044 642.443,229.685 642.197,230.169 641.901 C 230.654 641.606,231.051 641.426,231.051 641.502 C 231.051 641.579,231.401 641.460,231.828 641.239 C 232.255 641.018,232.937 640.777,233.343 640.704 C 233.749 640.630,234.223 640.464,234.396 640.334 C 234.570 640.204,235.261 639.944,235.932 639.757 C 236.603 639.570,237.498 639.243,237.920 639.030 C 238.343 638.818,238.915 638.644,239.192 638.644 C 239.470 638.644,239.766 638.531,239.852 638.394 C 239.937 638.256,240.393 638.058,240.866 637.955 C 241.339 637.851,242.131 637.538,242.626 637.260 C 243.121 636.982,243.525 636.829,243.525 636.919 C 243.525 637.009,243.689 636.947,243.889 636.781 C 244.090 636.615,244.334 636.560,244.432 636.658 C 244.530 636.756,244.610 636.688,244.610 636.508 C 244.610 636.327,244.763 636.212,244.949 636.251 C 245.426 636.352,247.050 635.585,247.055 635.256 C 247.057 635.106,247.177 635.166,247.322 635.390 C 247.525 635.704,247.586 635.713,247.589 635.429 C 247.591 635.221,247.763 635.126,247.982 635.210 C 248.197 635.292,248.412 635.239,248.461 635.091 C 248.510 634.944,248.823 634.803,249.157 634.778 C 249.490 634.753,249.763 634.616,249.763 634.473 C 249.763 634.331,249.844 634.296,249.944 634.396 C 250.044 634.496,250.349 634.375,250.622 634.128 C 250.895 633.881,251.119 633.774,251.119 633.889 C 251.119 634.005,251.325 633.933,251.577 633.728 C 251.889 633.475,251.971 633.465,251.833 633.695 C 251.721 633.881,251.728 634.034,251.848 634.033 C 251.969 634.033,252.115 626.833,252.172 618.033 C 252.232 608.854,252.174 602.036,252.037 602.038 C 251.684 602.044,250.936 602.565,251.254 602.583 C 251.403 602.591,251.174 602.788,250.745 603.021 C 250.097 603.372,249.924 603.382,249.732 603.078 C 249.553 602.795,249.499 602.791,249.496 603.059 C 249.489 603.600,248.736 603.758,248.291 603.313 C 248.071 603.092,247.963 602.839,248.052 602.751 C 248.140 602.662,248.043 602.385,247.835 602.134 C 247.628 601.884,247.442 601.454,247.424 601.179 C 247.357 600.189,247.318 600.106,247.005 600.300 C 246.796 600.428,246.743 600.352,246.848 600.078 C 246.936 599.848,246.872 599.522,246.704 599.355 C 246.537 599.188,246.490 599.051,246.599 599.051 C 246.709 599.051,246.646 598.776,246.460 598.441 C 246.274 598.105,246.148 597.739,246.180 597.627 C 246.211 597.515,246.146 597.424,246.034 597.424 C 245.922 597.423,245.812 597.102,245.789 596.710 C 245.766 596.318,245.587 595.897,245.390 595.776 C 245.194 595.654,245.116 595.471,245.219 595.369 C 245.321 595.267,245.261 594.924,245.085 594.608 C 244.910 594.292,244.792 593.942,244.824 593.831 C 244.855 593.719,244.763 593.627,244.619 593.627 C 244.474 593.627,244.426 593.444,244.512 593.220 C 244.598 592.996,244.520 592.814,244.339 592.814 C 244.158 592.814,244.079 592.634,244.163 592.415 C 244.247 592.197,244.199 591.945,244.056 591.857 C 243.913 591.769,243.797 591.422,243.797 591.087 C 243.797 590.751,243.617 590.240,243.398 589.950 C 243.179 589.661,242.996 589.149,242.992 588.814 C 242.987 588.478,242.861 588.203,242.712 588.203 C 242.563 588.203,242.441 587.927,242.441 587.589 C 242.441 587.251,242.196 586.519,241.898 585.962 C 241.599 585.405,241.352 584.890,241.348 584.817 C 241.344 584.743,241.289 584.530,241.226 584.342 C 241.163 584.154,240.980 583.487,240.820 582.859 C 240.659 582.231,240.409 581.644,240.264 581.555 C 240.119 581.465,240.000 581.159,240.000 580.875 C 240.000 580.590,239.827 579.957,239.616 579.467 C 238.737 577.428,238.419 576.622,238.091 575.593 C 237.901 574.997,237.558 574.081,237.331 573.559 C 237.103 573.037,236.940 572.515,236.969 572.399 C 236.999 572.282,236.814 571.794,236.560 571.314 C 236.306 570.834,236.057 570.199,236.007 569.904 C 235.957 569.609,235.798 569.249,235.653 569.104 C 235.508 568.959,235.390 568.613,235.390 568.335 C 235.390 568.056,235.243 567.562,235.064 567.236 C 234.885 566.911,234.701 566.421,234.656 566.149 C 234.611 565.877,234.427 565.389,234.249 565.064 C 234.071 564.740,233.888 564.252,233.842 563.980 C 233.797 563.707,233.614 563.219,233.436 562.895 C 233.257 562.570,233.071 562.064,233.022 561.769 C 232.974 561.473,232.815 561.113,232.670 560.969 C 232.525 560.824,232.407 560.495,232.407 560.239 C 232.407 559.983,232.237 559.427,232.030 559.005 C 231.823 558.583,231.504 557.810,231.322 557.288 C 231.140 556.766,230.528 555.058,229.963 553.492 C 229.397 551.925,228.608 549.729,228.209 548.610 C 227.810 547.492,227.371 546.460,227.233 546.319 C 227.096 546.177,226.983 545.804,226.983 545.489 C 226.983 545.175,226.804 544.680,226.585 544.391 C 226.366 544.101,226.183 543.614,226.178 543.308 C 226.173 543.003,226.043 542.626,225.888 542.471 C 225.734 542.317,225.543 541.839,225.466 541.409 C 225.388 540.979,225.199 540.477,225.047 540.294 C 224.895 540.111,224.708 539.558,224.632 539.065 C 224.556 538.572,224.382 538.129,224.247 538.079 C 224.111 538.029,224.000 537.718,224.000 537.388 C 224.000 537.057,223.874 536.660,223.719 536.505 C 223.564 536.351,223.381 535.914,223.313 535.534 C 223.244 535.154,223.005 534.494,222.782 534.066 C 222.559 533.638,222.375 533.099,222.375 532.868 C 222.374 532.637,222.275 532.332,222.156 532.190 C 222.037 532.048,221.722 531.261,221.455 530.441 C 221.189 529.620,220.859 528.705,220.722 528.407 C 220.585 528.108,220.178 527.010,219.816 525.966 C 219.455 524.922,218.901 523.397,218.584 522.576 C 218.267 521.756,217.724 520.256,217.377 519.244 L 216.746 517.403 217.694 517.006 C 218.216 516.788,218.736 516.610,218.850 516.610 C 218.963 516.610,219.406 516.428,219.833 516.205 C 220.261 515.982,220.817 515.799,221.069 515.798 C 221.321 515.797,221.592 515.691,221.672 515.563 C 221.751 515.434,222.372 515.173,223.051 514.983 C 223.730 514.793,224.350 514.532,224.430 514.403 C 224.509 514.275,224.762 514.169,224.992 514.169 C 225.222 514.169,225.794 514.001,226.264 513.794 C 226.734 513.588,227.820 513.210,228.677 512.955 C 229.535 512.701,230.305 512.381,230.388 512.246 C 230.472 512.111,230.773 512.000,231.058 512.000 C 231.560 512.000,232.906 511.489,234.322 510.760 C 234.705 510.563,235.330 510.345,235.711 510.276 C 236.092 510.207,236.633 510.021,236.914 509.862 C 237.194 509.704,238.583 509.188,240.000 508.716 C 241.417 508.244,242.820 507.728,243.119 507.569 C 243.417 507.411,243.901 507.241,244.194 507.192 C 244.488 507.144,245.006 506.922,245.347 506.698 C 245.687 506.475,245.966 506.371,245.966 506.468 C 245.966 506.564,246.149 506.491,246.373 506.305 C 246.597 506.119,246.782 506.074,246.784 506.204 C 246.786 506.334,246.878 506.319,246.987 506.169 C 247.408 505.597,248.360 505.219,248.502 505.569 C 248.600 505.810,248.641 505.804,248.657 505.543 C 248.668 505.348,248.801 505.264,248.951 505.357 C 249.101 505.450,249.301 505.325,249.396 505.079 C 249.533 504.722,249.613 504.705,249.796 504.994 C 249.960 505.253,250.027 505.261,250.030 505.025 C 250.032 504.844,250.217 504.765,250.441 504.851 C 250.664 504.937,250.847 504.865,250.847 504.691 C 250.847 504.517,250.962 504.446,251.102 504.532 C 251.242 504.619,251.484 504.473,251.639 504.209 C 251.886 503.791,251.957 503.781,252.194 504.136 C 252.426 504.482,252.467 504.469,252.470 504.050 C 252.473 503.688,252.613 503.601,252.994 503.722 C 253.280 503.812,253.604 503.741,253.714 503.562 C 253.841 503.358,253.799 503.309,253.601 503.432 C 253.254 503.646,253.215 491.561,253.525 480.116 L 253.695 473.860 252.966 474.136 C 252.565 474.287,252.310 474.530,252.400 474.675 C 252.495 474.829,252.374 474.867,252.112 474.766 C 251.844 474.664,251.659 474.727,251.657 474.924 C 251.654 475.133,251.556 475.105,251.390 474.847 C 251.168 474.505,251.126 474.520,251.123 474.944 C 251.120 475.280,250.983 475.396,250.712 475.292 C 250.488 475.206,250.305 475.242,250.305 475.373 C 250.305 475.503,250.055 475.545,249.750 475.465 C 249.401 475.374,249.042 475.509,248.781 475.830 C 248.553 476.110,248.437 476.198,248.523 476.025 C 248.641 475.788,248.514 475.788,248.002 476.025 C 247.631 476.198,247.325 476.438,247.324 476.558 C 247.323 476.679,247.199 476.702,247.049 476.609 C 246.729 476.411,244.836 477.026,244.547 477.422 C 244.437 477.572,244.345 477.599,244.343 477.482 C 244.341 477.365,244.064 477.420,243.729 477.605 C 243.393 477.790,242.997 477.953,242.847 477.968 C 242.245 478.028,240.902 478.473,240.136 478.867 C 239.688 479.097,239.139 479.314,238.915 479.349 C 238.229 479.456,236.083 480.294,235.810 480.561 C 235.668 480.700,235.296 480.814,234.983 480.814 C 234.670 480.814,234.287 480.940,234.132 481.095 C 233.978 481.249,233.496 481.440,233.061 481.518 C 232.627 481.596,232.155 481.774,232.014 481.915 C 231.872 482.055,231.575 482.169,231.354 482.169 C 230.928 482.169,227.101 483.592,225.809 484.231 C 225.386 484.439,224.872 484.610,224.665 484.610 C 224.459 484.610,223.889 484.786,223.399 485.001 C 222.909 485.216,221.105 485.896,219.390 486.512 C 216.259 487.635,215.298 487.990,213.288 488.763 C 212.692 488.992,211.288 489.502,210.169 489.895 C 209.051 490.288,207.924 490.724,207.665 490.864 C 206.994 491.227,206.989 491.224,206.648 490.102 C 206.477 489.542,206.169 488.658,205.962 488.136 C 205.296 486.452,202.388 478.563,201.764 476.746 C 201.191 475.080,200.882 474.291,199.977 472.194 C 199.766 471.704,199.593 471.088,199.593 470.825 C 199.593 470.561,199.485 470.230,199.352 470.088 C 199.220 469.946,198.781 468.854,198.377 467.661 C 197.973 466.468,197.424 464.942,197.157 464.271 C 196.890 463.600,196.282 461.953,195.805 460.610 C 195.328 459.268,194.784 457.803,194.596 457.356 C 194.408 456.908,194.107 456.115,193.927 455.593 C 192.695 452.009,192.450 451.362,192.238 451.132 C 192.107 450.991,192.000 450.653,192.000 450.383 C 192.000 450.112,191.880 449.679,191.733 449.420 C 191.400 448.830,189.727 444.435,189.284 442.983 C 189.102 442.386,188.795 441.532,188.603 441.085 C 188.410 440.637,187.859 439.173,187.379 437.831 C 186.899 436.488,186.217 434.637,185.863 433.716 C 185.510 432.796,185.220 431.960,185.220 431.859 C 185.220 431.758,185.027 431.230,184.791 430.685 C 184.555 430.140,184.189 429.294,183.977 428.804 C 183.766 428.315,183.593 427.776,183.593 427.607 C 183.593 427.327,182.327 423.873,181.625 422.237 C 181.465 421.864,181.304 421.410,181.268 421.227 C 181.136 420.556,180.224 418.288,179.849 417.695 C 179.637 417.359,179.537 417.085,179.628 417.085 C 179.796 417.085,179.147 415.164,178.689 414.305 C 178.402 413.767,183.071 413.728,206.874 414.069 C 213.339 414.162,218.665 414.176,218.709 414.102 C 218.754 414.027,218.871 408.966,218.971 402.854 C 219.070 396.742,219.207 391.685,219.276 391.617 C 219.344 391.549,219.794 391.349,220.276 391.174 C 220.758 390.999,222.739 390.283,224.678 389.584 C 226.617 388.884,228.661 388.135,229.220 387.918 C 231.879 386.891,232.312 386.732,232.881 386.574 C 233.217 386.480,233.492 386.317,233.492 386.210 C 233.492 386.104,233.815 385.990,234.210 385.957 C 234.605 385.924,235.063 385.801,235.227 385.684 C 235.391 385.566,236.258 385.235,237.153 384.949 C 238.047 384.662,238.854 384.321,238.946 384.191 C 239.037 384.060,239.220 383.963,239.352 383.974 C 239.750 384.006,240.600 383.711,242.082 383.025 C 242.855 382.668,243.727 382.339,244.022 382.294 C 244.316 382.249,244.733 382.066,244.948 381.888 C 245.162 381.710,245.418 381.644,245.516 381.742 C 245.615 381.841,245.695 381.799,245.695 381.650 C 245.695 381.501,246.072 381.379,246.532 381.379 C 246.993 381.379,247.479 381.206,247.613 380.994 C 247.747 380.783,247.858 380.706,247.860 380.823 C 247.863 380.940,248.139 380.884,248.475 380.698 C 248.810 380.513,249.250 380.395,249.451 380.436 C 249.674 380.482,249.739 380.384,249.617 380.186 C 249.490 379.981,249.553 379.908,249.790 379.987 C 249.996 380.055,250.336 379.940,250.545 379.731 C 250.755 379.521,251.000 379.458,251.090 379.590 C 251.181 379.722,251.558 379.672,251.932 379.478 C 252.305 379.285,252.488 379.123,252.339 379.118 C 252.190 379.114,252.248 378.997,252.467 378.858 C 252.731 378.691,252.937 378.715,253.073 378.930 C 253.226 379.170,253.281 379.158,253.284 378.886 C 253.287 378.650,253.455 378.582,253.754 378.697 C 254.011 378.796,254.135 378.790,254.030 378.685 C 253.925 378.580,254.023 378.360,254.248 378.195 C 254.600 377.938,254.681 375.773,254.830 362.521 L 255.003 347.145 254.033 347.200 C 253.499 347.230,253.083 347.376,253.107 347.525 M156.745 382.813 L 156.068 383.209 156.746 383.028 C 157.501 382.827,157.705 382.699,157.536 382.531 C 157.474 382.468,157.118 382.595,156.745 382.813 " stroke="none" fill="#6c98f4" fill-rule="evenodd"></path><path id="path1" d="M323.119 361.763 C 323.701 362.359,324.229 362.847,324.292 362.847 C 324.456 362.847,323.767 362.013,323.011 361.295 C 321.913 360.252,321.995 360.612,323.119 361.763 M327.331 377.815 C 327.353 408.561,326.466 458.955,325.894 459.416 C 325.422 459.797,325.410 459.869,325.794 460.016 C 326.034 460.108,326.206 460.097,326.177 459.990 C 326.081 459.650,326.897 458.576,327.252 458.576 C 327.440 458.576,327.593 458.393,327.593 458.169 C 327.593 457.946,327.713 457.763,327.859 457.763 C 328.006 457.763,328.202 457.458,328.295 457.087 C 328.388 456.715,328.579 456.481,328.719 456.568 C 329.040 456.766,329.805 456.152,329.617 455.847 C 329.539 455.723,329.724 455.488,330.026 455.326 C 330.329 455.164,330.576 454.866,330.576 454.664 C 330.576 454.461,330.759 454.225,330.983 454.139 C 331.207 454.053,331.390 453.796,331.390 453.568 C 331.390 453.339,331.586 453.153,331.826 453.153 C 332.102 453.153,332.204 453.003,332.105 452.746 C 332.011 452.500,332.104 452.339,332.341 452.339 C 332.556 452.339,332.987 451.820,333.298 451.186 C 334.230 449.291,334.563 448.776,334.813 448.845 C 334.944 448.881,335.095 448.675,335.149 448.387 C 335.203 448.100,335.416 447.767,335.623 447.648 C 335.831 447.528,336.000 447.303,336.000 447.147 C 336.000 446.991,336.236 446.532,336.524 446.127 C 336.813 445.722,337.131 445.062,337.232 444.661 C 337.332 444.260,337.514 443.932,337.635 443.932 C 337.756 443.932,337.934 443.575,338.030 443.137 C 338.126 442.700,338.372 442.204,338.576 442.034 C 338.781 441.864,339.027 441.368,339.123 440.930 C 339.219 440.493,339.430 440.136,339.592 440.136 C 339.754 440.136,339.810 440.059,339.717 439.966 C 339.623 439.872,339.736 439.353,339.968 438.813 C 340.199 438.273,340.420 437.708,340.458 437.559 C 340.496 437.410,340.691 436.922,340.893 436.475 C 341.094 436.027,341.267 435.535,341.278 435.381 C 341.303 435.025,341.919 432.966,342.371 431.729 C 342.944 430.158,343.687 426.133,343.936 423.255 C 343.971 422.845,344.093 422.509,344.208 422.509 C 344.322 422.509,344.396 422.173,344.372 421.763 C 344.347 421.353,344.419 419.125,344.530 416.814 C 344.738 412.468,344.359 404.188,343.871 402.441 C 343.725 401.919,343.545 401.003,343.470 400.407 C 343.302 399.075,342.839 397.037,342.312 395.311 C 342.094 394.597,341.854 393.621,341.780 393.142 C 341.705 392.663,341.516 392.116,341.360 391.926 C 341.203 391.736,341.149 391.507,341.239 391.417 C 341.329 391.327,341.224 390.909,341.007 390.489 C 340.789 390.068,340.568 389.504,340.515 389.235 C 340.407 388.689,339.654 386.830,339.247 386.105 C 339.102 385.846,338.983 385.466,338.983 385.261 C 338.983 385.055,338.757 384.596,338.481 384.240 C 338.205 383.884,338.032 383.441,338.097 383.254 C 338.162 383.068,338.082 382.915,337.921 382.915 C 337.759 382.915,337.627 382.729,337.627 382.502 C 337.627 381.908,335.735 378.234,335.245 377.876 C 335.018 377.710,334.915 377.439,335.017 377.275 C 335.119 377.111,334.954 376.844,334.652 376.682 C 334.349 376.520,334.102 376.163,334.102 375.888 C 334.102 375.613,333.916 375.234,333.688 375.045 C 333.461 374.857,333.335 374.642,333.408 374.569 C 333.543 374.434,332.189 372.386,331.325 371.416 C 331.066 371.125,330.783 370.665,330.697 370.393 C 330.610 370.121,330.426 369.898,330.287 369.898 C 330.148 369.898,330.034 369.734,330.034 369.533 C 330.034 369.092,328.230 367.183,328.016 367.397 C 327.932 367.480,327.864 367.291,327.864 366.976 C 327.864 366.662,327.742 366.329,327.593 366.237 C 327.414 366.127,327.325 370.052,327.331 377.815 M326.465 470.791 C 326.390 479.667,326.304 481.689,325.998 481.879 C 325.724 482.048,325.851 482.161,326.466 482.296 C 326.929 482.398,327.423 482.410,327.563 482.323 C 327.703 482.237,327.867 482.314,327.927 482.494 C 327.988 482.675,328.569 482.855,329.218 482.896 C 329.868 482.936,330.473 483.087,330.562 483.231 C 330.651 483.375,331.067 483.555,331.487 483.631 C 331.907 483.707,332.419 483.909,332.625 484.080 C 332.830 484.251,333.154 484.338,333.344 484.275 C 333.535 484.212,333.854 484.323,334.053 484.523 C 334.253 484.723,334.529 484.817,334.666 484.732 C 334.803 484.648,334.915 484.707,334.915 484.865 C 334.915 485.023,335.144 485.153,335.424 485.153 C 335.704 485.153,336.086 485.336,336.271 485.559 C 336.457 485.783,336.829 485.966,337.099 485.966 C 337.368 485.966,337.753 486.119,337.953 486.305 C 338.154 486.492,338.497 486.684,338.716 486.734 C 338.935 486.783,339.176 486.917,339.252 487.033 C 339.328 487.148,339.847 487.457,340.407 487.720 C 340.966 487.982,341.424 488.306,341.424 488.438 C 341.424 488.570,341.595 488.678,341.805 488.678 C 342.179 488.678,343.211 489.454,345.876 491.738 C 346.610 492.367,347.536 493.125,347.934 493.424 C 349.231 494.396,353.627 499.070,353.627 499.477 C 353.627 499.628,353.730 499.792,353.856 499.842 C 354.244 499.996,356.610 503.360,356.610 503.759 C 356.610 503.966,356.724 504.136,356.863 504.136 C 357.002 504.136,357.202 504.410,357.307 504.746 C 357.412 505.081,357.847 505.866,358.274 506.490 C 358.701 507.113,359.051 507.700,359.051 507.795 C 359.051 507.889,359.344 508.599,359.702 509.373 C 360.890 511.938,361.220 512.756,361.220 513.139 C 361.220 513.348,361.352 513.650,361.513 513.811 C 361.673 513.972,361.909 514.515,362.037 515.018 C 362.165 515.521,362.471 516.725,362.717 517.695 C 364.492 524.681,364.624 536.735,362.955 539.435 C 362.883 539.552,362.776 540.020,362.719 540.475 C 362.488 542.299,361.544 544.835,359.356 549.507 C 358.741 550.820,358.237 552.010,358.237 552.151 C 358.237 552.292,358.127 552.407,357.993 552.407 C 357.858 552.407,357.620 552.773,357.464 553.220 C 357.308 553.668,357.045 554.034,356.879 554.034 C 356.714 554.034,356.648 554.147,356.734 554.286 C 356.820 554.425,356.773 554.611,356.629 554.700 C 356.485 554.789,355.998 555.410,355.545 556.081 C 354.622 557.448,354.302 557.862,353.424 558.818 C 353.088 559.183,352.814 559.544,352.814 559.619 C 352.814 559.987,346.854 565.581,346.838 565.227 C 346.833 565.111,346.609 565.281,346.339 565.605 C 345.797 566.253,341.373 568.877,340.407 569.124 C 340.071 569.209,339.797 569.363,339.797 569.466 C 339.797 569.569,339.339 569.818,338.780 570.018 C 338.220 570.218,337.702 570.456,337.627 570.547 C 337.458 570.753,335.735 571.416,335.186 571.487 C 334.963 571.516,334.387 571.751,333.906 572.010 C 333.426 572.268,332.938 572.454,332.822 572.422 C 332.705 572.389,332.229 572.566,331.763 572.815 C 331.297 573.063,330.858 573.208,330.787 573.137 C 330.715 573.066,330.303 573.192,329.871 573.417 C 329.438 573.643,328.878 573.828,328.626 573.829 C 328.374 573.830,328.099 573.941,328.016 574.077 C 327.932 574.212,327.189 574.535,326.364 574.794 C 325.539 575.054,324.801 575.369,324.723 575.494 C 324.645 575.620,324.775 575.649,325.011 575.558 C 325.388 575.413,325.423 575.695,325.300 577.934 C 325.069 582.168,324.846 606.518,325.037 606.709 C 325.135 606.807,325.506 606.696,325.862 606.463 C 326.246 606.211,326.508 606.158,326.508 606.333 C 326.508 606.495,326.691 606.557,326.914 606.472 C 327.137 606.386,327.260 606.221,327.188 606.104 C 327.116 605.987,327.208 605.897,327.393 605.904 C 328.379 605.939,328.928 605.777,329.502 605.279 C 329.852 604.976,330.294 604.787,330.484 604.861 C 330.675 604.934,331.170 604.816,331.585 604.600 C 332.000 604.384,332.538 604.206,332.780 604.205 C 333.023 604.204,333.374 604.020,333.559 603.797 C 333.745 603.573,334.157 603.386,334.474 603.380 C 334.791 603.375,335.350 603.205,335.715 603.003 C 336.081 602.800,336.519 602.688,336.689 602.753 C 336.859 602.819,337.154 602.684,337.346 602.453 C 337.537 602.223,337.981 602.034,338.332 602.034 C 338.683 602.034,339.370 601.790,339.858 601.493 C 340.346 601.195,340.961 600.951,341.224 600.950 C 341.487 600.950,341.914 600.840,342.173 600.706 C 342.432 600.572,343.132 600.276,343.729 600.048 C 345.463 599.385,348.869 598.122,349.017 598.086 C 349.221 598.036,351.195 597.179,352.271 596.672 C 352.793 596.426,353.312 596.251,353.424 596.282 C 353.536 596.313,353.627 596.217,353.627 596.068 C 353.627 595.919,353.780 595.797,353.966 595.798 C 354.302 595.799,359.332 593.386,359.593 593.098 C 359.786 592.886,360.578 592.427,362.411 591.466 C 363.290 591.005,364.450 590.296,364.989 589.891 C 366.110 589.046,366.874 588.550,367.458 588.289 C 367.681 588.189,367.925 588.021,368.000 587.915 C 368.075 587.809,369.112 586.997,370.305 586.109 C 371.498 585.222,372.893 584.101,373.405 583.619 C 373.916 583.137,374.573 582.575,374.864 582.372 C 376.034 581.552,382.554 574.926,384.073 573.013 C 386.682 569.727,387.560 568.538,388.985 566.365 C 389.863 565.027,390.786 563.627,391.037 563.254 C 391.288 562.881,392.380 560.746,393.464 558.508 C 394.547 556.271,395.607 554.095,395.819 553.673 C 396.030 553.251,396.203 552.730,396.203 552.517 C 396.203 552.303,396.315 551.916,396.451 551.657 C 396.888 550.825,397.546 548.785,398.270 546.019 C 398.969 543.349,399.169 542.412,399.715 539.254 C 400.089 537.092,400.073 522.802,399.695 521.220 C 399.534 520.549,399.305 519.329,399.184 518.508 C 399.064 517.688,398.705 516.102,398.387 514.983 C 398.068 513.864,397.773 512.644,397.731 512.271 C 397.688 511.898,397.510 511.327,397.335 511.001 C 397.160 510.675,397.017 510.170,397.017 509.879 C 397.017 509.588,396.835 509.001,396.612 508.573 C 396.389 508.146,396.206 507.606,396.205 507.374 C 396.204 507.141,396.024 506.714,395.805 506.425 C 395.586 506.135,395.403 505.631,395.398 505.304 C 395.394 504.977,395.279 504.641,395.143 504.557 C 395.007 504.473,394.611 503.612,394.264 502.643 C 393.916 501.674,393.539 500.881,393.426 500.881 C 393.313 500.881,393.220 500.750,393.220 500.589 C 393.220 500.428,392.763 499.381,392.203 498.263 C 390.755 495.367,390.448 494.797,390.249 494.644 C 390.152 494.569,389.861 494.081,389.601 493.559 C 388.816 491.981,387.728 490.186,387.382 489.898 C 387.202 489.749,386.825 489.200,386.545 488.678 C 386.264 488.156,385.973 487.668,385.898 487.593 C 385.824 487.519,385.277 486.847,384.683 486.102 C 384.089 485.356,383.509 484.705,383.394 484.655 C 383.280 484.606,383.186 484.465,383.186 484.344 C 383.186 484.119,382.946 483.852,379.500 480.249 C 376.953 477.586,372.884 473.943,371.838 473.390 C 371.591 473.260,371.265 473.016,371.112 472.848 C 370.960 472.680,370.635 472.420,370.390 472.271 C 370.146 472.122,369.111 471.441,368.092 470.758 C 367.072 470.075,365.322 469.038,364.203 468.453 C 363.085 467.868,362.108 467.329,362.034 467.254 C 361.805 467.025,358.430 465.426,357.424 465.069 C 356.321 464.678,354.918 464.113,353.763 463.595 C 353.315 463.394,352.644 463.167,352.271 463.090 C 351.898 463.014,350.739 462.689,349.695 462.369 C 348.651 462.049,347.477 461.749,347.086 461.703 C 346.695 461.656,345.719 461.435,344.916 461.212 C 344.114 460.989,342.994 460.796,342.427 460.784 C 341.861 460.771,341.282 460.690,341.140 460.603 C 340.714 460.339,338.327 460.193,332.295 460.060 L 326.556 459.934 326.465 470.791 M319.661 481.547 C 319.997 481.612,320.546 481.612,320.881 481.547 C 321.217 481.483,320.942 481.430,320.271 481.430 C 319.600 481.430,319.325 481.483,319.661 481.547 M322.847 576.145 C 322.169 576.472,322.147 576.509,322.712 576.371 C 323.480 576.183,324.344 575.743,323.932 575.749 C 323.783 575.751,323.295 575.930,322.847 576.145 " stroke="none" fill="#6463f4" fill-rule="evenodd"></path><path id="path2" d="M165.299 58.558 C 165.201 58.717,165.187 58.955,165.268 59.086 C 165.349 59.217,165.082 59.665,164.674 60.082 C 164.266 60.499,164.085 60.750,164.271 60.641 C 164.458 60.532,164.610 60.576,164.610 60.738 C 164.610 60.901,164.420 61.107,164.188 61.196 C 163.956 61.285,163.829 61.524,163.907 61.727 C 163.985 61.929,163.900 62.066,163.719 62.031 C 163.538 61.995,163.407 62.178,163.427 62.438 C 163.447 62.697,163.356 62.843,163.224 62.761 C 163.012 62.630,162.859 63.214,162.951 63.797 C 162.969 63.908,162.884 64.000,162.762 64.000 C 162.528 64.000,161.192 67.519,161.295 67.864 C 161.329 67.976,161.220 68.068,161.053 68.068 C 160.884 68.068,160.813 68.307,160.892 68.611 C 160.983 68.956,160.928 69.088,160.742 68.973 C 160.556 68.858,160.515 68.961,160.629 69.258 C 160.727 69.514,160.701 69.657,160.570 69.576 C 160.440 69.496,160.269 69.673,160.192 69.969 C 160.111 70.277,160.185 70.510,160.364 70.513 C 160.583 70.516,160.589 70.577,160.385 70.716 C 160.009 70.972,158.618 74.587,158.789 74.863 C 158.860 74.978,158.800 75.113,158.654 75.163 C 158.509 75.213,158.360 75.651,158.324 76.136 C 158.287 76.620,158.174 77.017,158.073 77.017 C 157.971 77.017,157.877 77.292,157.863 77.627 C 157.810 78.961,157.704 79.458,157.472 79.458 C 157.339 79.458,157.299 79.637,157.383 79.856 C 157.467 80.075,157.418 80.326,157.275 80.415 C 157.132 80.503,157.090 80.873,157.181 81.237 C 157.278 81.622,157.229 81.898,157.063 81.898 C 156.907 81.898,156.773 82.112,156.766 82.373 C 156.737 83.414,156.645 83.797,156.423 83.797 C 156.295 83.797,156.238 84.224,156.295 84.746 C 156.354 85.283,156.279 85.695,156.121 85.695 C 155.967 85.695,155.915 85.768,156.005 85.858 C 156.095 85.948,156.044 86.345,155.891 86.740 C 155.739 87.135,155.567 88.177,155.510 89.055 C 155.453 89.934,155.270 91.068,155.102 91.575 C 154.935 92.082,154.870 92.684,154.957 92.912 C 155.045 93.141,154.983 93.578,154.818 93.885 C 154.595 94.302,154.604 94.494,154.854 94.648 C 155.060 94.775,155.099 94.997,154.958 95.224 C 154.661 95.699,154.590 96.082,154.461 97.898 C 154.403 98.719,154.286 99.573,154.203 99.797 C 153.857 100.722,154.258 120.533,154.634 121.110 C 154.740 121.274,154.769 121.890,154.698 122.480 C 154.627 123.069,154.696 124.339,154.852 125.301 C 155.007 126.264,155.127 127.447,155.118 127.932 C 155.109 128.417,155.204 128.814,155.330 128.814 C 155.455 128.814,155.510 129.485,155.451 130.305 C 155.392 131.135,155.459 131.797,155.601 131.797 C 155.742 131.797,155.799 132.102,155.727 132.475 C 155.656 132.847,155.704 133.153,155.833 133.153 C 155.962 133.153,156.083 133.427,156.101 133.763 C 156.242 136.329,156.311 136.854,156.546 137.153 C 156.692 137.339,156.721 137.492,156.610 137.492 C 156.499 137.492,156.539 137.650,156.700 137.843 C 156.860 138.036,156.983 138.433,156.972 138.724 C 156.945 139.456,157.226 141.251,157.529 142.285 C 157.667 142.758,157.711 143.216,157.625 143.302 C 157.539 143.387,157.614 143.458,157.790 143.458 C 157.996 143.458,158.052 143.697,157.945 144.123 C 157.850 144.502,157.954 145.141,158.187 145.608 C 158.783 146.802,158.526 147.679,157.796 146.948 C 157.506 146.658,157.151 146.494,157.007 146.582 C 156.863 146.671,156.746 146.580,156.746 146.380 C 156.746 146.179,156.359 145.787,155.887 145.508 C 155.415 145.229,154.670 144.593,154.233 144.094 C 153.795 143.596,153.324 143.258,153.186 143.343 C 153.048 143.428,152.969 143.336,153.010 143.139 C 153.051 142.941,152.932 142.810,152.746 142.847 C 152.559 142.885,152.407 142.740,152.407 142.527 C 152.407 142.313,152.161 142.060,151.860 141.965 C 151.560 141.869,151.384 141.678,151.470 141.540 C 151.555 141.401,151.435 141.288,151.202 141.288 C 150.970 141.288,150.810 141.189,150.847 141.068 C 150.885 140.946,150.305 140.141,149.559 139.278 C 148.814 138.416,148.047 137.417,147.856 137.058 C 147.665 136.700,147.390 136.407,147.246 136.407 C 147.101 136.407,146.983 136.299,146.983 136.166 C 146.983 136.034,146.495 135.195,145.898 134.302 C 145.302 133.408,144.814 132.550,144.814 132.395 C 144.814 132.240,144.722 132.072,144.610 132.023 C 144.429 131.942,142.924 128.975,141.950 126.780 C 140.242 122.929,138.107 114.474,137.636 109.695 C 137.037 103.619,137.232 94.687,138.070 89.846 C 138.499 87.367,138.324 87.284,136.523 89.111 C 134.090 91.579,133.019 92.873,130.707 96.136 C 129.967 97.180,129.262 98.156,129.141 98.305 C 129.021 98.454,128.832 98.759,128.721 98.983 C 128.389 99.657,127.861 100.530,127.549 100.920 C 126.649 102.045,122.034 111.263,122.034 111.936 C 122.034 112.095,121.932 112.267,121.808 112.316 C 121.266 112.534,115.797 127.239,115.797 128.481 C 115.797 128.763,115.705 129.086,115.593 129.198 C 115.481 129.310,115.379 129.482,115.366 129.582 C 115.354 129.681,115.272 129.946,115.186 130.169 C 115.099 130.393,114.938 130.942,114.828 131.390 C 114.717 131.837,114.590 132.325,114.545 132.475 C 114.289 133.315,113.832 135.056,113.619 136.000 C 113.484 136.597,113.299 137.390,113.207 137.763 C 113.115 138.136,112.930 138.967,112.796 139.611 C 112.662 140.255,112.495 140.874,112.426 140.986 C 112.356 141.098,112.221 141.792,112.124 142.527 C 112.028 143.263,111.775 144.625,111.563 145.554 C 111.351 146.483,111.188 147.582,111.202 147.995 C 111.216 148.408,111.093 149.275,110.929 149.921 C 110.049 153.395,110.037 167.208,110.911 171.525 C 111.062 172.271,111.250 173.418,111.330 174.073 C 111.409 174.728,111.545 175.379,111.632 175.520 C 111.718 175.660,111.943 176.466,112.130 177.311 C 112.685 179.814,115.034 186.912,115.509 187.523 C 115.626 187.674,115.802 188.132,115.900 188.542 C 115.998 188.953,116.198 189.288,116.344 189.288 C 116.490 189.288,116.610 189.514,116.610 189.790 C 116.610 190.550,122.387 200.940,123.116 201.492 C 123.214 201.566,123.791 202.359,124.397 203.254 C 125.370 204.691,125.735 205.171,126.910 206.565 C 127.062 206.745,127.186 207.009,127.186 207.152 C 127.186 207.295,127.280 207.453,127.394 207.503 C 127.509 207.553,128.089 208.203,128.683 208.949 C 129.277 209.695,129.824 210.366,129.899 210.441 C 129.974 210.515,130.449 211.064,130.956 211.661 C 135.213 216.672,149.642 231.387,150.051 231.134 C 150.199 231.042,150.244 231.092,150.150 231.244 C 150.056 231.396,150.241 231.751,150.561 232.032 C 150.882 232.313,151.043 232.371,150.920 232.161 C 150.769 231.904,150.798 231.844,151.009 231.974 C 151.181 232.081,151.322 232.320,151.322 232.507 C 151.322 232.964,153.670 235.116,153.922 234.890 C 154.031 234.792,154.047 234.843,153.956 235.003 C 153.865 235.162,154.821 236.312,156.082 237.557 C 157.342 238.802,158.373 239.922,158.373 240.046 C 158.373 240.170,158.559 240.271,158.786 240.271 C 159.014 240.271,159.309 240.546,159.443 240.881 C 159.693 241.510,161.288 243.119,161.661 243.119 C 161.777 243.119,162.030 243.289,162.224 243.497 C 162.484 243.777,162.487 243.826,162.237 243.685 C 162.051 243.580,161.898 243.623,161.898 243.781 C 161.898 243.939,162.089 244.068,162.321 244.068 C 162.554 244.068,162.688 244.159,162.621 244.271 C 162.553 244.383,162.661 244.626,162.862 244.811 C 163.113 245.043,163.281 245.057,163.405 244.857 C 163.584 244.567,163.715 234.275,164.473 161.085 C 164.696 139.532,165.049 107.620,165.258 90.169 C 165.637 58.534,165.637 58.011,165.299 58.558 M161.448 381.168 C 161.359 381.400,161.119 381.526,160.914 381.448 C 160.710 381.369,160.542 381.408,160.542 381.534 C 160.542 381.660,160.253 381.763,159.898 381.763 C 159.544 381.763,158.981 382.036,158.646 382.371 C 158.199 382.818,157.983 382.891,157.831 382.645 C 157.672 382.388,157.597 382.396,157.502 382.681 C 157.367 383.084,150.939 383.117,134.780 382.798 C 116.917 382.445,88.344 382.324,88.516 382.602 C 88.633 382.790,88.402 382.798,87.804 382.627 C 87.317 382.487,86.613 382.390,86.239 382.410 C 85.602 382.444,85.597 382.454,86.169 382.564 C 86.882 382.702,86.938 385.368,86.600 403.063 L 86.421 412.453 84.499 412.545 C 83.229 412.607,83.866 412.674,86.373 412.745 C 89.699 412.838,90.539 412.876,91.797 412.992 C 91.974 413.008,92.037 416.608,91.980 423.390 C 91.861 437.449,91.673 453.333,91.556 459.254 C 91.502 461.939,91.557 463.892,91.677 463.593 C 91.883 463.079,91.895 463.082,91.913 463.661 C 91.924 463.997,91.841 464.272,91.729 464.273 C 91.393 464.276,91.342 467.328,91.674 467.533 C 91.889 467.666,91.894 468.017,91.691 468.775 C 91.518 469.422,91.415 473.609,91.426 479.593 C 91.436 484.963,91.367 494.542,91.273 500.881 C 91.180 507.220,91.049 518.264,90.982 525.424 C 90.916 532.583,90.807 540.257,90.740 542.478 C 90.655 545.280,90.715 546.680,90.936 547.055 C 91.183 547.476,91.179 547.624,90.915 547.719 C 90.504 547.868,90.439 551.051,90.847 551.051 C 90.997 551.051,91.119 551.234,91.119 551.458 C 91.119 551.681,91.010 551.864,90.878 551.864 C 90.741 551.864,90.615 557.991,90.587 566.034 C 90.560 573.827,90.494 583.315,90.439 587.119 C 90.385 590.922,90.280 604.102,90.205 616.407 C 90.131 628.712,89.991 641.467,89.893 644.752 L 89.716 650.724 106.959 650.810 L 124.203 650.897 124.251 635.008 C 124.277 626.269,124.320 618.722,124.346 618.237 C 124.421 616.834,124.755 585.779,124.884 568.136 C 125.060 544.118,125.284 521.492,125.429 513.085 C 125.499 508.983,125.615 496.108,125.687 484.475 C 125.824 462.310,126.072 438.238,126.241 430.644 C 126.296 428.183,126.348 423.268,126.357 419.722 L 126.373 413.275 133.999 413.421 C 142.662 413.588,141.893 413.446,142.374 414.969 C 142.576 415.611,142.828 416.258,142.933 416.407 C 143.038 416.556,143.207 417.066,143.308 417.541 C 143.410 418.015,143.660 418.543,143.866 418.713 C 144.071 418.883,144.172 419.198,144.089 419.413 C 144.007 419.628,144.063 419.955,144.214 420.139 C 144.366 420.324,144.628 420.993,144.797 421.627 C 144.967 422.261,145.207 422.780,145.331 422.780 C 145.455 422.780,145.622 423.176,145.703 423.661 C 145.784 424.146,146.003 424.908,146.189 425.356 C 146.376 425.803,146.509 426.261,146.484 426.373 C 146.460 426.485,146.563 426.576,146.712 426.576 C 146.861 426.576,146.983 426.818,146.983 427.113 C 146.983 427.779,147.804 429.905,148.152 430.139 C 148.293 430.234,148.330 430.439,148.234 430.595 C 148.138 430.751,148.183 430.954,148.335 431.048 C 148.486 431.142,148.610 431.437,148.610 431.703 C 148.610 431.970,148.799 432.566,149.030 433.029 C 149.261 433.492,149.501 434.090,149.565 434.359 C 149.851 435.573,150.594 437.424,150.795 437.424 C 150.917 437.424,151.008 437.637,150.997 437.898 C 150.986 438.159,151.135 438.739,151.327 439.186 C 151.520 439.634,151.692 440.122,151.709 440.271 C 151.784 440.926,152.195 441.763,152.441 441.763 C 152.589 441.763,152.628 441.895,152.528 442.057 C 152.428 442.219,152.537 442.737,152.769 443.210 C 153.002 443.682,153.263 444.408,153.350 444.825 C 153.449 445.299,153.623 445.510,153.817 445.390 C 154.016 445.267,154.069 445.348,153.966 445.617 C 153.878 445.846,153.974 446.360,154.181 446.757 C 154.387 447.155,154.635 447.901,154.731 448.416 C 154.828 448.930,155.000 449.293,155.114 449.223 C 155.229 449.152,155.322 449.397,155.322 449.767 C 155.322 450.137,155.485 450.636,155.685 450.877 C 155.885 451.117,156.090 451.628,156.142 452.012 C 156.193 452.396,156.495 453.267,156.813 453.948 C 157.131 454.629,157.399 455.308,157.408 455.458 C 157.418 455.607,157.574 455.987,157.754 456.303 C 157.935 456.619,158.006 456.954,157.913 457.047 C 157.820 457.141,157.958 457.454,158.220 457.744 C 158.489 458.040,158.608 458.415,158.493 458.601 C 158.357 458.822,158.403 458.861,158.631 458.720 C 158.886 458.563,158.924 458.665,158.780 459.119 C 158.636 459.573,158.674 459.675,158.928 459.517 C 159.131 459.392,159.202 459.416,159.103 459.577 C 158.861 459.969,159.439 461.874,159.743 461.686 C 159.885 461.599,160.016 461.687,160.035 461.882 C 160.054 462.078,160.099 462.542,160.134 462.915 C 160.252 464.177,161.354 466.291,161.300 465.153 C 161.287 464.892,161.414 454.488,161.581 442.034 C 162.276 390.291,162.252 379.073,161.448 381.168 M25.429 381.756 C 25.916 381.816,26.648 381.815,27.056 381.753 C 27.463 381.691,27.064 381.642,26.169 381.643 C 25.275 381.645,24.941 381.696,25.429 381.756 M29.085 381.746 C 29.346 381.814,29.773 381.814,30.034 381.746 C 30.295 381.678,30.081 381.622,29.559 381.622 C 29.037 381.622,28.824 381.678,29.085 381.746 M45.499 382.029 C 46.137 382.087,47.113 382.086,47.668 382.028 C 48.224 381.969,47.702 381.922,46.508 381.923 C 45.315 381.924,44.861 381.972,45.499 382.029 M49.424 382.025 C 49.834 382.087,50.505 382.087,50.915 382.025 C 51.325 381.963,50.990 381.912,50.169 381.912 C 49.349 381.912,49.014 381.963,49.424 382.025 M67.051 382.303 C 68.058 382.355,69.705 382.355,70.712 382.303 C 71.719 382.251,70.895 382.208,68.881 382.208 C 66.868 382.208,66.044 382.251,67.051 382.303 M78.712 382.560 C 78.973 382.628,79.400 382.628,79.661 382.560 C 79.922 382.492,79.708 382.436,79.186 382.436 C 78.664 382.436,78.451 382.492,78.712 382.560 M11.058 412.131 C 11.696 412.188,12.672 412.188,13.228 412.129 C 13.783 412.071,13.261 412.024,12.068 412.025 C 10.875 412.026,10.420 412.074,11.058 412.131 M28.542 412.390 C 28.803 412.459,29.231 412.459,29.492 412.390 C 29.753 412.322,29.539 412.266,29.017 412.266 C 28.495 412.266,28.281 412.322,28.542 412.390 M31.939 412.402 C 32.577 412.460,33.553 412.459,34.109 412.401 C 34.664 412.342,34.142 412.295,32.949 412.296 C 31.756 412.297,31.302 412.345,31.939 412.402 M50.518 412.675 C 51.381 412.729,52.724 412.729,53.501 412.674 C 54.279 412.620,53.573 412.575,51.932 412.576 C 50.292 412.577,49.655 412.621,50.518 412.675 M63.525 412.669 C 63.936 412.731,64.607 412.731,65.017 412.669 C 65.427 412.607,65.092 412.556,64.271 412.556 C 63.451 412.556,63.115 412.607,63.525 412.669 M196.139 414.025 C 196.552 414.087,197.162 414.086,197.495 414.021 C 197.829 413.957,197.492 413.906,196.746 413.908 C 196.000 413.910,195.727 413.963,196.139 414.025 M161.981 468.339 C 162.150 468.786,162.387 469.153,162.507 469.153 C 162.627 469.153,162.536 468.786,162.305 468.339 C 162.074 467.892,161.837 467.525,161.779 467.525 C 161.722 467.525,161.812 467.892,161.981 468.339 M166.241 479.616 C 166.244 479.902,166.368 480.319,166.518 480.542 C 166.723 480.848,166.759 480.755,166.662 480.170 C 166.507 479.240,166.236 478.882,166.241 479.616 M170.253 490.712 C 170.391 491.010,170.571 491.437,170.654 491.661 C 170.784 492.012,170.808 492.010,170.826 491.645 C 170.838 491.413,170.658 490.985,170.426 490.696 C 170.011 490.178,170.008 490.178,170.253 490.712 " stroke="none" fill="#6cb8f4" fill-rule="evenodd"></path><path id="path3" d="M0.000 396.704 L 0.000 411.932 4.407 411.944 C 6.831 411.950,10.827 412.008,13.288 412.072 C 17.724 412.187,31.953 412.348,63.322 412.636 C 72.271 412.718,79.715 412.785,79.864 412.785 C 80.439 412.785,86.375 412.412,86.422 412.373 C 86.448 412.350,86.559 405.666,86.666 397.519 L 86.862 382.706 85.804 382.542 C 85.222 382.453,82.610 382.393,80.000 382.410 C 75.339 382.440,53.277 382.162,45.017 381.969 C 42.705 381.915,31.631 381.782,20.407 381.674 L 0.000 381.476 0.000 396.704 M92.001 423.729 C 92.004 424.325,92.059 424.538,92.124 424.200 C 92.189 423.863,92.186 423.375,92.119 423.115 C 92.051 422.856,91.998 423.132,92.001 423.729 M91.735 444.475 C 91.735 445.146,91.788 445.420,91.852 445.085 C 91.917 444.749,91.917 444.200,91.852 443.864 C 91.788 443.529,91.735 443.803,91.735 444.475 M91.484 463.253 C 91.507 463.812,91.617 464.269,91.729 464.270 C 91.990 464.272,91.958 463.477,91.669 462.780 C 91.498 462.369,91.453 462.483,91.484 463.253 M91.417 468.542 C 91.441 469.450,91.467 469.486,91.661 468.881 C 91.971 467.912,91.971 467.525,91.661 467.525 C 91.512 467.525,91.402 467.983,91.417 468.542 M125.637 479.051 C 125.639 479.797,125.692 480.070,125.754 479.657 C 125.816 479.245,125.815 478.635,125.750 478.301 C 125.686 477.968,125.635 478.305,125.637 479.051 M125.633 491.390 C 125.633 492.061,125.686 492.336,125.751 492.000 C 125.815 491.664,125.815 491.115,125.751 490.780 C 125.686 490.444,125.633 490.719,125.633 491.390 M91.193 507.390 C 91.193 508.061,91.245 508.336,91.310 508.000 C 91.375 507.664,91.375 507.115,91.310 506.780 C 91.245 506.444,91.193 506.719,91.193 507.390 M90.576 547.238 C 90.576 547.545,90.698 547.797,90.847 547.797 C 90.997 547.797,91.119 547.621,91.119 547.406 C 91.119 547.191,90.997 546.940,90.847 546.847 C 90.698 546.755,90.576 546.931,90.576 547.238 M90.576 551.458 C 90.576 551.681,90.698 551.864,90.847 551.864 C 90.997 551.864,91.119 551.681,91.119 551.458 C 91.119 551.234,90.997 551.051,90.847 551.051 C 90.698 551.051,90.576 551.234,90.576 551.458 M90.645 569.898 C 90.648 570.495,90.703 570.707,90.768 570.370 C 90.833 570.032,90.830 569.544,90.763 569.285 C 90.695 569.026,90.642 569.302,90.645 569.898 M90.108 611.797 C 90.108 612.468,90.161 612.742,90.225 612.407 C 90.290 612.071,90.290 611.522,90.225 611.186 C 90.161 610.851,90.108 611.125,90.108 611.797 M90.102 632.814 C 90.105 633.410,90.161 633.622,90.226 633.285 C 90.291 632.948,90.288 632.460,90.220 632.200 C 90.152 631.941,90.099 632.217,90.102 632.814 M90.644 650.763 C 90.905 650.831,91.332 650.831,91.593 650.763 C 91.854 650.695,91.641 650.639,91.119 650.639 C 90.597 650.639,90.383 650.695,90.644 650.763 M93.768 650.773 C 94.255 650.833,94.987 650.832,95.395 650.770 C 95.802 650.708,95.403 650.659,94.508 650.660 C 93.614 650.662,93.280 650.712,93.768 650.773 " stroke="none" fill="#6ccdf4" fill-rule="evenodd"></path><path id="path4" d="M251.901 87.793 C 252.820 88.986,253.291 89.409,253.284 89.033 C 253.281 88.912,252.770 88.325,252.147 87.729 L 251.016 86.644 251.901 87.793 M254.656 90.708 C 255.377 91.693,255.993 92.301,256.129 92.165 C 256.203 92.091,255.813 91.612,255.262 91.100 C 254.711 90.588,254.439 90.412,254.656 90.708 M257.487 94.847 C 257.476 98.910,257.039 142.463,256.674 176.000 C 255.701 265.154,255.796 259.247,255.330 259.958 C 255.095 260.317,254.983 260.610,255.081 260.610 C 255.380 260.610,256.542 259.142,256.542 258.764 C 256.542 258.568,256.661 258.482,256.806 258.571 C 256.950 258.661,257.146 258.428,257.240 258.054 C 257.333 257.680,257.534 257.400,257.686 257.433 C 257.838 257.465,258.000 257.266,258.046 256.989 C 258.092 256.713,258.718 255.941,259.438 255.273 C 260.157 254.605,260.593 254.136,260.407 254.232 C 259.804 254.540,260.045 254.106,261.017 253.134 C 261.539 252.612,261.966 251.999,261.966 251.772 C 261.966 251.544,262.079 251.428,262.218 251.513 C 262.356 251.599,262.544 251.434,262.635 251.148 C 262.726 250.861,262.986 250.555,263.214 250.468 C 263.441 250.380,263.551 250.185,263.458 250.034 C 263.364 249.883,263.478 249.686,263.712 249.596 C 263.945 249.507,264.136 249.195,264.136 248.904 C 264.136 248.613,264.244 248.442,264.377 248.524 C 264.510 248.606,264.813 248.264,265.050 247.764 C 265.287 247.264,265.665 246.702,265.890 246.515 C 266.115 246.329,266.245 246.089,266.179 245.982 C 266.113 245.875,266.408 245.364,266.835 244.846 C 267.262 244.328,267.945 243.308,268.352 242.579 C 268.759 241.849,269.203 241.123,269.338 240.965 C 269.659 240.590,271.834 236.787,272.915 234.712 C 273.381 233.817,273.854 233.044,273.966 232.994 C 274.078 232.945,274.169 232.729,274.169 232.514 C 274.169 232.300,274.470 231.649,274.837 231.068 C 275.204 230.487,275.583 229.696,275.680 229.311 C 275.776 228.925,275.956 228.610,276.079 228.610 C 276.202 228.610,276.386 228.336,276.489 228.000 C 276.704 227.294,277.805 224.761,278.384 223.639 C 278.601 223.217,278.780 222.746,278.780 222.593 C 278.780 222.440,279.147 221.546,279.595 220.607 C 280.043 219.667,280.486 218.521,280.578 218.059 C 280.670 217.598,280.860 217.220,280.999 217.220 C 281.138 217.220,281.198 217.129,281.133 217.017 C 281.067 216.905,281.138 216.508,281.292 216.136 C 282.007 214.397,283.993 208.618,284.046 208.122 C 284.078 207.816,284.171 207.450,284.252 207.308 C 284.333 207.167,284.497 206.685,284.615 206.237 C 284.734 205.790,284.868 205.302,284.913 205.153 C 285.183 204.264,285.590 202.630,285.662 202.144 C 285.709 201.831,285.832 201.438,285.936 201.270 C 286.040 201.101,286.178 200.503,286.242 199.940 C 286.307 199.376,286.537 198.305,286.754 197.559 C 287.217 195.967,287.774 193.030,288.110 190.424 C 288.192 189.781,288.314 189.166,288.381 189.058 C 288.448 188.951,288.578 188.134,288.670 187.245 C 288.762 186.355,288.900 185.017,288.977 184.271 C 289.054 183.525,289.222 182.183,289.350 181.288 C 289.935 177.194,289.873 155.371,289.273 154.387 C 289.200 154.267,289.063 153.376,288.969 152.407 C 288.751 150.154,288.041 146.042,287.658 144.814 C 287.495 144.292,287.272 143.376,287.161 142.780 C 286.649 140.003,284.552 133.160,283.783 131.755 C 283.567 131.359,283.390 130.904,283.390 130.744 C 283.390 130.584,282.963 129.540,282.441 128.425 C 281.919 127.310,281.492 126.270,281.492 126.114 C 281.492 125.958,281.349 125.831,281.175 125.831 C 281.001 125.831,280.930 125.759,281.017 125.672 C 281.148 125.542,280.025 123.148,279.057 121.492 C 278.926 121.268,278.746 120.902,278.657 120.678 C 278.568 120.454,278.007 119.478,277.411 118.508 C 276.814 117.539,276.145 116.349,275.922 115.864 C 275.700 115.380,275.398 114.983,275.251 114.983 C 275.103 114.983,274.983 114.867,274.983 114.725 C 274.983 114.584,274.586 113.900,274.102 113.206 C 273.617 112.512,273.098 111.746,272.949 111.503 C 272.719 111.129,270.713 108.387,270.039 107.525 C 269.922 107.376,269.226 106.487,268.491 105.548 C 266.271 102.711,265.141 101.378,263.932 100.168 C 263.298 99.534,262.780 98.885,262.780 98.728 C 262.780 98.570,262.688 98.471,262.576 98.508 C 262.464 98.546,262.334 98.454,262.286 98.305 C 262.106 97.744,261.340 97.104,261.049 97.270 C 260.882 97.365,260.835 97.344,260.945 97.223 C 261.160 96.985,259.942 95.729,259.495 95.729 C 259.345 95.729,259.288 95.623,259.368 95.493 C 259.548 95.202,258.628 94.102,258.205 94.102 C 258.037 94.102,257.898 93.919,257.898 93.695 C 257.898 93.471,257.807 93.288,257.695 93.288 C 257.583 93.288,257.490 93.990,257.487 94.847 M254.222 261.266 C 253.932 261.477,253.777 261.732,253.876 261.831 C 253.975 261.930,254.311 261.757,254.621 261.446 C 255.265 260.803,255.011 260.689,254.222 261.266 M276.746 341.449 C 270.364 342.062,270.876 341.995,268.963 342.468 C 268.411 342.605,267.895 342.652,267.816 342.573 C 267.738 342.495,267.152 342.622,266.515 342.855 C 265.244 343.322,263.574 343.726,263.254 343.645 C 263.142 343.616,263.051 343.715,263.051 343.864 C 263.051 344.014,262.959 344.121,262.847 344.103 C 262.137 343.991,261.137 344.190,260.820 344.507 C 260.471 344.855,259.731 345.176,259.119 345.244 C 258.969 345.260,258.619 345.396,258.339 345.546 C 258.060 345.695,257.527 345.851,257.156 345.892 C 256.784 345.933,256.389 346.114,256.278 346.294 C 256.166 346.475,255.997 346.612,255.902 346.599 C 255.807 346.587,255.698 346.585,255.661 346.596 C 255.624 346.608,255.291 346.672,254.921 346.740 C 254.551 346.808,254.137 346.975,254.001 347.111 C 253.850 347.261,253.982 347.299,254.334 347.207 L 254.915 347.055 254.915 355.179 C 254.915 359.646,254.834 366.628,254.735 370.694 L 254.556 378.086 253.922 378.375 C 253.573 378.533,253.288 378.751,253.288 378.858 C 253.288 378.965,253.715 378.859,254.237 378.622 C 254.759 378.386,255.186 378.095,255.186 377.977 C 255.186 377.859,255.316 377.763,255.474 377.763 C 255.632 377.763,255.669 377.915,255.557 378.102 C 255.405 378.355,255.453 378.369,255.745 378.158 C 255.960 378.002,256.807 377.654,257.627 377.384 C 258.447 377.115,259.503 376.724,259.973 376.515 C 260.443 376.306,261.081 376.136,261.391 376.136 C 261.701 376.136,262.415 375.960,262.978 375.746 C 265.636 374.733,274.873 374.665,278.059 375.635 C 279.064 375.941,280.107 376.179,280.678 376.233 C 280.902 376.254,281.146 376.341,281.220 376.427 C 281.357 376.584,283.663 377.411,284.548 377.620 C 284.812 377.683,285.789 378.126,286.718 378.604 C 287.647 379.083,288.773 379.656,289.220 379.878 C 289.668 380.099,290.422 380.568,290.897 380.920 C 291.372 381.272,291.838 381.559,291.932 381.559 C 292.115 381.559,293.860 382.823,294.456 383.386 C 294.651 383.570,295.505 384.262,296.354 384.924 C 297.688 385.963,299.192 387.493,302.432 391.105 C 302.838 391.558,303.243 392.157,303.332 392.438 C 303.421 392.719,303.608 392.949,303.747 392.949 C 303.886 392.949,304.000 393.136,304.000 393.364 C 304.000 393.593,304.183 393.850,304.407 393.936 C 304.631 394.022,304.814 394.239,304.814 394.419 C 304.814 394.598,305.049 394.998,305.336 395.306 C 305.624 395.615,306.199 396.523,306.613 397.324 C 307.028 398.124,307.464 398.820,307.582 398.870 C 307.700 398.920,307.797 399.123,307.797 399.323 C 307.797 399.522,307.965 400.030,308.170 400.453 C 309.291 402.756,310.499 405.695,310.324 405.695 C 310.240 405.695,310.305 405.857,310.470 406.055 C 310.634 406.253,310.813 406.650,310.868 406.937 C 311.076 408.035,311.388 408.949,311.555 408.950 C 311.651 408.950,311.738 409.388,311.750 409.922 C 311.762 410.456,311.896 410.975,312.048 411.074 C 312.200 411.173,312.331 411.437,312.339 411.661 C 312.348 411.885,312.437 412.556,312.537 413.153 C 312.638 413.749,312.731 414.390,312.744 414.576 C 312.757 414.763,312.840 414.916,312.927 414.917 C 313.408 414.921,313.415 428.240,312.934 429.559 C 312.907 429.634,312.904 429.799,312.927 429.927 C 312.949 430.054,312.858 430.298,312.724 430.469 C 312.589 430.640,312.502 431.146,312.530 431.593 C 312.558 432.041,312.422 432.657,312.227 432.963 C 312.032 433.269,311.805 434.057,311.723 434.716 C 311.640 435.374,311.448 435.990,311.297 436.083 C 311.146 436.177,311.048 436.364,311.080 436.499 C 311.112 436.635,310.993 437.112,310.815 437.559 C 309.787 440.141,309.033 441.804,308.835 441.927 C 308.712 442.003,308.610 442.240,308.610 442.453 C 308.610 442.885,306.990 445.644,306.653 445.786 C 306.534 445.836,306.496 445.972,306.568 446.089 C 306.640 446.205,306.458 446.519,306.163 446.785 C 305.868 447.052,305.627 447.374,305.627 447.500 C 305.627 447.626,305.414 447.964,305.153 448.252 C 304.340 449.147,303.974 449.627,304.103 449.627 C 304.564 449.627,297.630 456.088,296.855 456.380 C 296.697 456.440,296.405 456.623,296.206 456.787 C 295.366 457.481,295.130 457.652,294.365 458.118 C 293.922 458.389,293.346 458.677,293.085 458.760 C 292.824 458.843,292.610 459.019,292.610 459.150 C 292.610 459.282,292.375 459.390,292.087 459.390 C 291.800 459.390,291.381 459.573,291.157 459.797 C 290.934 460.020,290.671 460.203,290.574 460.203 C 290.309 460.203,286.859 461.544,286.239 461.888 C 285.942 462.053,285.332 462.280,284.883 462.392 C 283.876 462.644,282.217 463.271,282.034 463.469 C 281.959 463.549,281.471 463.751,280.949 463.918 C 277.956 464.874,269.210 468.101,269.017 468.320 C 268.942 468.405,268.637 468.515,268.339 468.564 C 268.041 468.613,267.442 468.826,267.009 469.038 C 266.576 469.250,266.049 469.424,265.839 469.424 C 265.628 469.424,265.189 469.570,264.864 469.750 C 264.538 469.929,264.093 470.105,263.876 470.141 C 263.659 470.177,263.232 470.322,262.927 470.465 C 261.591 471.091,260.247 471.656,259.966 471.711 C 258.956 471.908,257.356 472.527,257.356 472.721 C 257.356 472.846,257.264 472.935,257.153 472.917 C 256.664 472.840,256.281 472.978,255.884 473.375 C 255.649 473.610,255.458 473.682,255.458 473.536 C 255.458 473.390,255.214 473.335,254.915 473.413 C 254.617 473.491,254.373 473.656,254.373 473.779 C 254.373 473.902,254.159 473.962,253.898 473.912 C 253.452 473.827,253.417 474.706,253.318 488.647 L 253.212 503.472 253.798 503.516 C 254.136 503.542,254.312 503.443,254.214 503.284 C 254.117 503.128,254.263 503.030,254.547 503.060 C 255.589 503.170,256.000 503.037,256.000 502.590 C 256.000 502.243,256.077 502.206,256.312 502.440 C 256.546 502.675,256.831 502.640,257.464 502.300 C 257.927 502.051,258.608 501.819,258.979 501.783 C 259.350 501.747,259.696 501.590,259.748 501.435 C 259.799 501.280,260.082 501.153,260.375 501.153 C 260.668 501.153,261.267 500.967,261.706 500.740 C 262.144 500.514,262.570 500.343,262.653 500.362 C 262.735 500.380,263.133 500.270,263.537 500.116 C 263.941 499.963,265.308 499.447,266.576 498.971 C 267.844 498.495,269.266 497.937,269.736 497.731 C 270.206 497.525,270.733 497.356,270.906 497.356 C 271.080 497.356,271.489 497.209,271.814 497.030 C 272.140 496.851,272.529 496.673,272.678 496.634 C 273.554 496.408,280.867 493.805,282.305 493.208 C 282.678 493.053,283.044 492.915,283.119 492.901 C 283.331 492.861,285.063 492.179,286.007 491.765 C 286.477 491.559,286.947 491.390,287.051 491.390 C 287.155 491.390,287.625 491.222,288.095 491.016 C 288.565 490.811,289.559 490.433,290.305 490.177 C 291.051 489.921,292.027 489.555,292.475 489.363 C 292.922 489.171,294.325 488.678,295.593 488.267 C 296.861 487.857,298.142 487.390,298.441 487.231 C 298.739 487.072,299.223 486.902,299.516 486.853 C 299.810 486.805,300.324 486.585,300.659 486.366 C 300.995 486.146,301.497 485.966,301.776 485.966 C 302.054 485.966,302.367 485.881,302.471 485.777 C 302.575 485.674,302.809 485.564,302.991 485.533 C 303.173 485.503,303.688 485.324,304.136 485.136 C 304.583 484.948,305.041 484.813,305.153 484.838 C 305.264 484.862,305.356 484.752,305.356 484.594 C 305.356 484.436,305.470 484.377,305.608 484.463 C 305.747 484.549,305.939 484.493,306.034 484.339 C 306.129 484.185,306.312 484.124,306.441 484.203 C 306.569 484.283,306.751 484.224,306.845 484.072 C 306.938 483.921,307.315 483.797,307.681 483.797 C 308.047 483.797,308.558 483.677,308.817 483.532 C 309.326 483.246,311.446 482.634,312.180 482.561 C 312.427 482.537,312.855 482.421,313.129 482.303 C 313.403 482.185,314.176 482.056,314.847 482.016 C 316.071 481.942,317.398 481.794,319.794 481.463 C 320.580 481.355,321.218 481.400,321.433 481.578 C 321.626 481.739,322.421 481.833,323.198 481.786 C 324.103 481.732,324.612 481.810,324.614 482.003 C 324.617 482.169,324.739 482.122,324.886 481.898 C 325.085 481.595,325.206 481.574,325.363 481.816 C 325.500 482.027,325.714 482.054,325.973 481.894 C 326.521 481.556,326.760 460.330,326.222 459.834 C 325.968 459.601,325.933 459.607,326.076 459.861 C 326.207 460.093,326.124 460.143,325.807 460.021 C 325.381 459.858,325.383 459.819,325.832 459.490 C 326.099 459.296,326.391 459.182,326.481 459.238 C 326.571 459.294,326.606 457.612,326.560 455.500 C 326.513 453.389,326.666 438.481,326.900 422.373 C 327.433 385.643,327.462 365.803,326.983 365.898 C 326.787 365.937,326.680 365.754,326.730 365.464 C 326.782 365.163,326.700 365.034,326.527 365.141 C 326.367 365.240,326.237 365.123,326.237 364.881 C 326.237 364.640,326.117 364.517,325.969 364.608 C 325.813 364.705,325.772 364.590,325.870 364.333 C 325.995 364.008,325.905 363.915,325.528 363.980 C 325.230 364.031,325.045 363.927,325.085 363.729 C 325.122 363.542,325.023 363.390,324.865 363.390 C 324.707 363.390,324.644 363.284,324.723 363.155 C 324.803 363.026,324.599 362.690,324.269 362.409 C 323.678 361.905,323.675 361.905,324.060 362.441 C 324.274 362.739,323.936 362.501,323.309 361.911 C 322.142 360.813,321.911 360.502,322.508 360.834 C 322.695 360.938,322.176 360.354,321.356 359.537 C 320.536 358.720,319.803 358.080,319.729 358.116 C 319.654 358.151,319.436 358.010,319.244 357.802 C 319.051 357.594,318.976 357.424,319.077 357.424 C 319.177 357.424,318.908 357.153,318.477 356.823 C 318.047 356.492,317.605 356.096,317.496 355.942 C 317.386 355.787,317.295 355.772,317.292 355.907 C 317.290 356.042,317.014 355.846,316.678 355.471 C 316.342 355.096,315.671 354.563,315.186 354.285 C 314.702 354.008,314.305 353.678,314.305 353.553 C 314.305 353.427,314.205 353.386,314.083 353.461 C 313.961 353.536,313.690 353.361,313.481 353.070 C 313.272 352.780,312.958 352.542,312.783 352.542 C 312.608 352.542,312.395 352.359,312.309 352.136 C 312.223 351.912,311.918 351.729,311.631 351.729 C 311.344 351.729,311.036 351.538,310.946 351.305 C 310.857 351.072,310.661 350.957,310.510 351.050 C 310.360 351.142,310.237 351.092,310.237 350.936 C 310.237 350.781,309.931 350.577,309.556 350.483 C 309.181 350.389,308.784 350.167,308.675 349.989 C 308.447 349.620,301.831 346.226,301.831 346.478 C 301.831 346.569,301.657 346.499,301.445 346.323 C 301.085 346.024,297.210 344.531,296.000 344.225 C 295.702 344.149,295.275 344.017,295.051 343.932 C 294.827 343.846,294.583 343.759,294.508 343.738 C 294.434 343.718,293.641 343.478,292.746 343.205 C 291.851 342.932,290.753 342.663,290.305 342.608 C 289.858 342.553,289.308 342.438,289.085 342.353 C 288.861 342.267,288.129 342.135,287.458 342.060 C 286.786 341.984,285.593 341.828,284.806 341.713 C 284.019 341.598,282.377 341.477,281.157 341.445 C 279.937 341.413,278.872 341.359,278.791 341.326 C 278.710 341.294,277.790 341.349,276.746 341.449 M252.833 347.307 C 252.508 347.371,252.087 347.629,251.897 347.881 C 251.612 348.259,251.615 348.283,251.911 348.021 C 252.108 347.846,252.418 347.760,252.600 347.830 C 252.781 347.900,253.087 347.768,253.278 347.538 C 253.469 347.307,253.580 347.135,253.525 347.156 C 253.469 347.176,253.158 347.244,252.833 347.307 M249.103 348.733 C 248.814 348.838,248.698 348.997,248.845 349.088 C 249.124 349.261,249.975 348.860,249.755 348.659 C 249.685 348.595,249.391 348.628,249.103 348.733 M125.633 489.220 C 125.633 489.892,125.686 490.166,125.751 489.831 C 125.815 489.495,125.815 488.946,125.751 488.610 C 125.686 488.275,125.633 488.549,125.633 489.220 M324.213 575.622 C 323.986 575.849,323.659 575.947,323.486 575.840 C 323.290 575.719,323.244 575.763,323.364 575.958 C 323.470 576.130,323.438 576.271,323.292 576.271 C 323.147 576.271,322.804 576.344,322.531 576.432 C 322.118 576.566,322.102 576.544,322.441 576.301 C 322.730 576.093,322.747 576.007,322.500 576.004 C 322.309 576.002,322.082 576.183,321.996 576.407 C 321.910 576.631,321.508 576.814,321.101 576.814 C 320.694 576.814,320.277 576.898,320.173 577.002 C 320.069 577.106,319.783 577.220,319.538 577.256 C 319.292 577.292,318.983 577.515,318.851 577.751 C 318.719 577.988,318.515 578.122,318.399 578.050 C 318.282 577.978,317.710 578.058,317.127 578.229 C 316.544 578.400,315.991 578.522,315.897 578.501 C 315.803 578.480,315.517 578.693,315.261 578.976 C 315.006 579.258,314.628 579.424,314.423 579.345 C 313.962 579.169,312.408 579.827,312.403 580.202 C 312.400 580.352,312.296 580.313,312.171 580.116 C 311.982 579.818,311.878 579.818,311.558 580.116 C 311.171 580.477,310.659 580.670,310.034 580.690 C 309.847 580.696,309.695 580.809,309.695 580.943 C 309.695 581.076,309.583 581.115,309.446 581.030 C 309.308 580.946,309.018 581.055,308.800 581.273 C 308.582 581.491,308.336 581.602,308.254 581.519 C 308.171 581.437,307.943 581.470,307.747 581.592 C 307.550 581.715,307.219 581.841,307.010 581.873 C 306.801 581.904,306.557 582.030,306.468 582.151 C 306.378 582.273,306.005 582.406,305.639 582.447 C 305.273 582.488,304.907 582.610,304.825 582.719 C 304.744 582.827,304.495 582.957,304.271 583.009 C 304.047 583.060,303.681 583.145,303.458 583.197 C 303.234 583.248,302.380 583.554,301.559 583.876 C 300.739 584.198,299.791 584.524,299.454 584.602 C 299.116 584.679,298.773 584.850,298.692 584.982 C 298.611 585.113,298.274 585.220,297.943 585.220 C 297.612 585.220,297.100 585.380,296.806 585.575 C 296.512 585.770,295.539 586.162,294.644 586.445 C 293.749 586.728,292.824 587.118,292.588 587.311 C 292.352 587.504,292.088 587.590,292.000 587.503 C 291.912 587.415,291.434 587.527,290.937 587.751 C 290.440 587.975,288.936 588.539,287.593 589.005 C 286.251 589.471,284.786 590.012,284.339 590.206 C 283.389 590.619,282.277 591.015,279.932 591.773 C 279.000 592.075,278.237 592.406,278.237 592.510 C 278.237 592.613,277.998 592.716,277.705 592.738 C 277.413 592.760,276.772 592.956,276.282 593.174 C 275.177 593.663,274.362 593.980,274.124 594.010 C 274.025 594.023,273.852 594.125,273.740 594.237 C 273.628 594.349,273.252 594.441,272.904 594.441 C 272.556 594.441,272.271 594.549,272.271 594.682 C 272.271 594.814,271.829 595.006,271.289 595.107 C 270.748 595.208,270.108 595.398,269.865 595.528 C 269.290 595.836,266.752 596.745,266.576 596.705 C 266.502 596.688,266.200 596.843,265.906 597.049 C 265.612 597.255,265.116 597.424,264.805 597.424 C 264.494 597.424,264.002 597.603,263.713 597.822 C 263.423 598.041,263.049 598.224,262.881 598.229 C 262.712 598.233,262.102 598.443,261.525 598.694 C 260.947 598.946,260.368 599.124,260.237 599.090 C 260.107 599.056,259.771 599.235,259.491 599.488 C 259.212 599.741,258.983 599.854,258.983 599.738 C 258.983 599.622,258.800 599.679,258.576 599.864 C 258.353 600.050,258.169 600.122,258.169 600.024 C 258.169 599.926,257.915 599.982,257.603 600.148 C 257.292 600.315,256.729 600.507,256.353 600.575 C 255.976 600.644,255.483 600.885,255.257 601.111 C 255.031 601.337,254.682 601.460,254.481 601.383 C 254.281 601.306,253.961 601.399,253.771 601.590 C 253.398 601.963,253.219 602.034,252.654 602.034 C 252.357 602.034,252.256 604.884,252.101 617.680 C 251.919 632.712,251.821 634.332,251.119 633.898 C 251.003 633.827,250.766 633.941,250.591 634.151 C 250.333 634.463,250.375 634.507,250.823 634.390 C 251.125 634.311,251.503 634.089,251.662 633.897 C 251.822 633.705,252.180 633.607,252.459 633.680 C 252.755 633.757,253.204 633.576,253.534 633.245 C 253.846 632.933,254.102 632.803,254.102 632.956 C 254.102 633.109,254.498 633.023,254.983 632.764 C 255.468 632.505,255.925 632.282,256.000 632.267 C 257.057 632.059,258.192 631.742,258.847 631.471 C 261.008 630.579,264.078 629.435,264.748 629.273 C 265.160 629.174,265.564 628.984,265.646 628.851 C 265.728 628.719,266.068 628.610,266.402 628.610 C 266.737 628.610,267.126 628.505,267.268 628.376 C 267.409 628.247,267.892 628.014,268.339 627.858 C 271.325 626.818,275.477 625.313,275.932 625.107 C 276.491 624.854,282.517 622.655,284.203 622.089 C 284.725 621.914,285.498 621.601,285.920 621.394 C 286.343 621.186,286.898 621.017,287.154 621.017 C 287.411 621.017,287.736 620.913,287.878 620.786 C 288.020 620.658,289.600 620.023,291.390 619.373 C 293.180 618.723,294.705 618.126,294.780 618.045 C 294.854 617.964,295.098 617.874,295.322 617.845 C 296.084 617.745,298.440 616.852,298.531 616.629 C 298.581 616.507,298.969 616.407,299.393 616.407 C 299.817 616.407,300.326 616.254,300.523 616.068 C 300.720 615.881,301.186 615.686,301.559 615.633 C 301.932 615.580,302.298 615.445,302.373 615.333 C 302.447 615.221,302.966 615.045,303.525 614.942 C 304.085 614.839,304.542 614.631,304.542 614.480 C 304.542 614.329,304.664 614.281,304.814 614.373 C 304.963 614.465,305.085 614.423,305.085 614.279 C 305.085 614.135,305.329 614.081,305.627 614.159 C 305.942 614.241,306.169 614.167,306.169 613.982 C 306.169 613.806,306.281 613.732,306.418 613.816 C 306.554 613.901,306.706 613.848,306.756 613.699 C 306.807 613.550,307.183 613.401,307.593 613.367 C 308.003 613.333,308.339 613.203,308.339 613.077 C 308.339 612.952,308.461 612.925,308.610 613.017 C 308.759 613.109,308.881 613.076,308.881 612.943 C 308.881 612.809,309.034 612.687,309.220 612.671 C 309.710 612.629,310.268 612.465,311.136 612.109 C 311.556 611.937,311.999 611.797,312.120 611.797 C 312.241 611.797,312.491 611.615,312.675 611.393 C 312.860 611.171,313.096 611.042,313.201 611.107 C 313.524 611.306,315.408 610.551,315.189 610.310 C 315.076 610.185,315.206 610.163,315.478 610.261 C 315.765 610.364,316.138 610.273,316.367 610.045 C 316.584 609.828,316.941 609.719,317.160 609.803 C 317.380 609.887,317.559 609.821,317.559 609.656 C 317.559 609.491,317.864 609.356,318.237 609.356 C 318.610 609.356,318.915 609.221,318.915 609.056 C 318.915 608.891,319.088 608.822,319.300 608.903 C 319.511 608.984,319.756 608.861,319.845 608.630 C 319.972 608.299,320.088 608.278,320.395 608.533 C 320.704 608.789,320.877 608.746,321.237 608.326 C 321.486 608.034,321.903 607.852,322.164 607.920 C 322.424 607.988,322.705 607.866,322.789 607.649 C 322.889 607.386,323.198 607.295,323.707 607.377 C 324.237 607.462,324.362 607.421,324.113 607.245 C 323.816 607.036,323.822 606.964,324.148 606.839 C 324.366 606.755,324.650 606.792,324.781 606.921 C 324.915 607.055,325.050 601.108,325.093 593.137 C 325.135 585.427,325.237 578.312,325.320 577.326 C 325.483 575.388,325.075 574.760,324.213 575.622 M250.589 602.834 C 250.373 602.971,250.098 603.023,249.979 602.949 C 249.860 602.876,249.763 602.945,249.763 603.103 C 249.763 603.261,249.854 603.386,249.966 603.380 C 250.297 603.365,251.550 602.596,251.254 602.590 C 251.105 602.587,250.806 602.697,250.589 602.834 " stroke="none" fill="#6478f4" fill-rule="evenodd"></path></g></svg>